G75*
%MOIN*%
%OFA0B0*%
%FSLAX25Y25*%
%IPPOS*%
%LPD*%
%AMOC8*
5,1,8,0,0,1.08239X$1,22.5*
%
%ADD10C,0.13800*%
%ADD11C,0.03300*%
%ADD12R,0.08674X0.05524*%
%ADD13R,0.06115X0.03162*%
%ADD14C,0.08200*%
%ADD15R,0.05131X0.04737*%
%ADD16R,0.04737X0.05131*%
%ADD17C,0.00197*%
%ADD18R,0.16535X0.06693*%
%ADD19R,0.03300X0.05800*%
%ADD20C,0.00500*%
%ADD21C,0.01990*%
%ADD22R,0.04068X0.03280*%
%ADD23R,0.11627X0.07099*%
%ADD24R,0.07099X0.11627*%
%ADD25C,0.04737*%
%ADD26C,0.05000*%
%ADD27C,0.06706*%
D10*
X0038750Y0038750D03*
X0178750Y0038750D03*
X0200750Y0038750D03*
X0340750Y0038750D03*
X0340750Y0178750D03*
X0340750Y0200750D03*
X0200750Y0200750D03*
X0200750Y0178750D03*
X0178750Y0178750D03*
X0178750Y0200750D03*
X0038750Y0200750D03*
X0038750Y0178750D03*
X0038750Y0340750D03*
X0178750Y0340750D03*
X0200750Y0340750D03*
X0340750Y0340750D03*
D11*
X0193250Y0348250D03*
X0031250Y0348250D03*
X0186250Y0193250D03*
X0193250Y0186250D03*
X0348250Y0193250D03*
X0348250Y0031250D03*
X0186250Y0031250D03*
X0031250Y0186250D03*
D12*
X0034281Y0119774D03*
X0034281Y0097726D03*
X0183219Y0097726D03*
X0196281Y0097726D03*
X0196281Y0119774D03*
X0183219Y0119774D03*
X0183219Y0259726D03*
X0196281Y0259726D03*
X0196281Y0281774D03*
X0183219Y0281774D03*
X0034281Y0281774D03*
X0034281Y0259726D03*
X0345219Y0259726D03*
X0345219Y0281774D03*
X0345219Y0119774D03*
X0345219Y0097726D03*
D13*
X0330750Y0102844D03*
X0330750Y0106781D03*
X0330750Y0110719D03*
X0330750Y0114656D03*
X0210750Y0114656D03*
X0210750Y0110719D03*
X0210750Y0106781D03*
X0210750Y0102844D03*
X0168750Y0102844D03*
X0168750Y0106781D03*
X0168750Y0110719D03*
X0168750Y0114656D03*
X0048750Y0114656D03*
X0048750Y0110719D03*
X0048750Y0106781D03*
X0048750Y0102844D03*
X0048750Y0264844D03*
X0048750Y0268781D03*
X0048750Y0272719D03*
X0048750Y0276656D03*
X0168750Y0276656D03*
X0168750Y0272719D03*
X0168750Y0268781D03*
X0168750Y0264844D03*
X0210750Y0264844D03*
X0210750Y0268781D03*
X0210750Y0272719D03*
X0210750Y0276656D03*
X0330750Y0276656D03*
X0330750Y0272719D03*
X0330750Y0268781D03*
X0330750Y0264844D03*
D14*
X0305750Y0195750D03*
X0295750Y0195750D03*
X0285750Y0195750D03*
X0275750Y0195750D03*
X0265750Y0195750D03*
X0255750Y0195750D03*
X0245750Y0195750D03*
X0235750Y0195750D03*
X0245750Y0183750D03*
X0255750Y0183750D03*
X0265750Y0183750D03*
X0275750Y0183750D03*
X0285750Y0183750D03*
X0295750Y0183750D03*
X0143750Y0195750D03*
X0133750Y0195750D03*
X0123750Y0195750D03*
X0113750Y0195750D03*
X0103750Y0195750D03*
X0093750Y0195750D03*
X0083750Y0195750D03*
X0073750Y0195750D03*
X0083750Y0183750D03*
X0093750Y0183750D03*
X0103750Y0183750D03*
X0113750Y0183750D03*
X0123750Y0183750D03*
X0133750Y0183750D03*
X0133750Y0033750D03*
X0123750Y0033750D03*
X0113750Y0033750D03*
X0103750Y0033750D03*
X0093750Y0033750D03*
X0083750Y0033750D03*
X0073750Y0033750D03*
X0143750Y0033750D03*
X0235750Y0033750D03*
X0245750Y0033750D03*
X0255750Y0033750D03*
X0265750Y0033750D03*
X0275750Y0033750D03*
X0285750Y0033750D03*
X0295750Y0033750D03*
X0305750Y0033750D03*
X0295750Y0345750D03*
X0285750Y0345750D03*
X0275750Y0345750D03*
X0265750Y0345750D03*
X0255750Y0345750D03*
X0245750Y0345750D03*
X0133750Y0345750D03*
X0123750Y0345750D03*
X0113750Y0345750D03*
X0103750Y0345750D03*
X0093750Y0345750D03*
X0083750Y0345750D03*
D15*
X0042096Y0250750D03*
X0035404Y0250750D03*
X0125404Y0220750D03*
X0132096Y0220750D03*
X0140404Y0220750D03*
X0147096Y0220750D03*
X0197404Y0250750D03*
X0204096Y0250750D03*
X0287404Y0220750D03*
X0294096Y0220750D03*
X0302404Y0220750D03*
X0309096Y0220750D03*
X0204096Y0088750D03*
X0197404Y0088750D03*
X0147096Y0058750D03*
X0140404Y0058750D03*
X0132096Y0058750D03*
X0125404Y0058750D03*
X0042096Y0088750D03*
X0035404Y0088750D03*
X0287404Y0058750D03*
X0294096Y0058750D03*
X0302404Y0058750D03*
X0309096Y0058750D03*
D16*
X0320750Y0060404D03*
X0320750Y0067096D03*
X0340750Y0067096D03*
X0340750Y0060404D03*
X0301750Y0165404D03*
X0295750Y0165404D03*
X0295750Y0172096D03*
X0301750Y0172096D03*
X0320750Y0222404D03*
X0320750Y0229096D03*
X0340750Y0229096D03*
X0340750Y0222404D03*
X0301750Y0327404D03*
X0295750Y0327404D03*
X0295750Y0334096D03*
X0301750Y0334096D03*
X0223250Y0337404D03*
X0223250Y0344096D03*
X0215750Y0344096D03*
X0215750Y0337404D03*
X0139750Y0334096D03*
X0133750Y0334096D03*
X0133750Y0327404D03*
X0139750Y0327404D03*
X0061250Y0337404D03*
X0061250Y0344096D03*
X0053750Y0344096D03*
X0053750Y0337404D03*
X0048750Y0234096D03*
X0048750Y0227404D03*
X0053750Y0182096D03*
X0053750Y0175404D03*
X0061250Y0175404D03*
X0061250Y0182096D03*
X0133750Y0172096D03*
X0139750Y0172096D03*
X0139750Y0165404D03*
X0133750Y0165404D03*
X0158750Y0222404D03*
X0158750Y0229096D03*
X0178750Y0229096D03*
X0178750Y0222404D03*
X0210750Y0227404D03*
X0210750Y0234096D03*
X0215750Y0182096D03*
X0215750Y0175404D03*
X0223250Y0175404D03*
X0223250Y0182096D03*
X0210750Y0072096D03*
X0210750Y0065404D03*
X0178750Y0067096D03*
X0178750Y0060404D03*
X0158750Y0060404D03*
X0158750Y0067096D03*
X0048750Y0065404D03*
X0048750Y0072096D03*
D17*
X0051629Y0146647D02*
X0052329Y0159991D01*
X0058651Y0152969D01*
X0051629Y0146647D01*
X0051635Y0146748D02*
X0051743Y0146748D01*
X0051645Y0146944D02*
X0051959Y0146944D01*
X0052176Y0147139D02*
X0051655Y0147139D01*
X0051665Y0147335D02*
X0052393Y0147335D01*
X0052610Y0147530D02*
X0051676Y0147530D01*
X0051686Y0147725D02*
X0052827Y0147725D01*
X0053044Y0147921D02*
X0051696Y0147921D01*
X0051706Y0148116D02*
X0053261Y0148116D01*
X0053478Y0148311D02*
X0051717Y0148311D01*
X0051727Y0148507D02*
X0053695Y0148507D01*
X0053912Y0148702D02*
X0051737Y0148702D01*
X0051747Y0148897D02*
X0054129Y0148897D01*
X0054346Y0149093D02*
X0051758Y0149093D01*
X0051768Y0149288D02*
X0054563Y0149288D01*
X0054780Y0149484D02*
X0051778Y0149484D01*
X0051788Y0149679D02*
X0054997Y0149679D01*
X0055214Y0149874D02*
X0051798Y0149874D01*
X0051809Y0150070D02*
X0055431Y0150070D01*
X0055648Y0150265D02*
X0051819Y0150265D01*
X0051829Y0150460D02*
X0055865Y0150460D01*
X0056082Y0150656D02*
X0051839Y0150656D01*
X0051850Y0150851D02*
X0056299Y0150851D01*
X0056516Y0151046D02*
X0051860Y0151046D01*
X0051870Y0151242D02*
X0056733Y0151242D01*
X0056950Y0151437D02*
X0051880Y0151437D01*
X0051891Y0151633D02*
X0057167Y0151633D01*
X0057384Y0151828D02*
X0051901Y0151828D01*
X0051911Y0152023D02*
X0057601Y0152023D01*
X0057818Y0152219D02*
X0051921Y0152219D01*
X0051932Y0152414D02*
X0058035Y0152414D01*
X0058252Y0152609D02*
X0051942Y0152609D01*
X0051952Y0152805D02*
X0058469Y0152805D01*
X0058623Y0153000D02*
X0051962Y0153000D01*
X0051973Y0153195D02*
X0058447Y0153195D01*
X0058271Y0153391D02*
X0051983Y0153391D01*
X0051993Y0153586D02*
X0058096Y0153586D01*
X0057920Y0153781D02*
X0052003Y0153781D01*
X0052013Y0153977D02*
X0057744Y0153977D01*
X0057568Y0154172D02*
X0052024Y0154172D01*
X0052034Y0154368D02*
X0057392Y0154368D01*
X0057216Y0154563D02*
X0052044Y0154563D01*
X0052054Y0154758D02*
X0057040Y0154758D01*
X0056864Y0154954D02*
X0052065Y0154954D01*
X0052075Y0155149D02*
X0056688Y0155149D01*
X0056512Y0155344D02*
X0052085Y0155344D01*
X0052095Y0155540D02*
X0056337Y0155540D01*
X0056161Y0155735D02*
X0052106Y0155735D01*
X0052116Y0155930D02*
X0055985Y0155930D01*
X0055809Y0156126D02*
X0052126Y0156126D01*
X0052136Y0156321D02*
X0055633Y0156321D01*
X0055457Y0156517D02*
X0052147Y0156517D01*
X0052157Y0156712D02*
X0055281Y0156712D01*
X0055105Y0156907D02*
X0052167Y0156907D01*
X0052177Y0157103D02*
X0054929Y0157103D01*
X0054753Y0157298D02*
X0052188Y0157298D01*
X0052198Y0157493D02*
X0054577Y0157493D01*
X0054402Y0157689D02*
X0052208Y0157689D01*
X0052218Y0157884D02*
X0054226Y0157884D01*
X0054050Y0158079D02*
X0052228Y0158079D01*
X0052239Y0158275D02*
X0053874Y0158275D01*
X0053698Y0158470D02*
X0052249Y0158470D01*
X0052259Y0158666D02*
X0053522Y0158666D01*
X0053346Y0158861D02*
X0052269Y0158861D01*
X0052280Y0159056D02*
X0053170Y0159056D01*
X0052994Y0159252D02*
X0052290Y0159252D01*
X0052300Y0159447D02*
X0052818Y0159447D01*
X0052643Y0159642D02*
X0052310Y0159642D01*
X0052321Y0159838D02*
X0052467Y0159838D01*
X0051629Y0308647D02*
X0052329Y0321991D01*
X0058651Y0314969D01*
X0051629Y0308647D01*
X0051632Y0308703D02*
X0051692Y0308703D01*
X0051643Y0308899D02*
X0051909Y0308899D01*
X0052126Y0309094D02*
X0051653Y0309094D01*
X0051663Y0309289D02*
X0052343Y0309289D01*
X0052560Y0309485D02*
X0051673Y0309485D01*
X0051683Y0309680D02*
X0052777Y0309680D01*
X0052994Y0309876D02*
X0051694Y0309876D01*
X0051704Y0310071D02*
X0053211Y0310071D01*
X0053428Y0310266D02*
X0051714Y0310266D01*
X0051724Y0310462D02*
X0053645Y0310462D01*
X0053862Y0310657D02*
X0051735Y0310657D01*
X0051745Y0310852D02*
X0054079Y0310852D01*
X0054296Y0311048D02*
X0051755Y0311048D01*
X0051765Y0311243D02*
X0054513Y0311243D01*
X0054730Y0311438D02*
X0051776Y0311438D01*
X0051786Y0311634D02*
X0054947Y0311634D01*
X0055164Y0311829D02*
X0051796Y0311829D01*
X0051806Y0312024D02*
X0055381Y0312024D01*
X0055598Y0312220D02*
X0051817Y0312220D01*
X0051827Y0312415D02*
X0055815Y0312415D01*
X0056032Y0312611D02*
X0051837Y0312611D01*
X0051847Y0312806D02*
X0056249Y0312806D01*
X0056466Y0313001D02*
X0051858Y0313001D01*
X0051868Y0313197D02*
X0056683Y0313197D01*
X0056900Y0313392D02*
X0051878Y0313392D01*
X0051888Y0313587D02*
X0057117Y0313587D01*
X0057334Y0313783D02*
X0051898Y0313783D01*
X0051909Y0313978D02*
X0057551Y0313978D01*
X0057768Y0314173D02*
X0051919Y0314173D01*
X0051929Y0314369D02*
X0057985Y0314369D01*
X0058202Y0314564D02*
X0051939Y0314564D01*
X0051950Y0314760D02*
X0058418Y0314760D01*
X0058635Y0314955D02*
X0051960Y0314955D01*
X0051970Y0315150D02*
X0058488Y0315150D01*
X0058312Y0315346D02*
X0051980Y0315346D01*
X0051991Y0315541D02*
X0058136Y0315541D01*
X0057960Y0315736D02*
X0052001Y0315736D01*
X0052011Y0315932D02*
X0057784Y0315932D01*
X0057608Y0316127D02*
X0052021Y0316127D01*
X0052032Y0316322D02*
X0057433Y0316322D01*
X0057257Y0316518D02*
X0052042Y0316518D01*
X0052052Y0316713D02*
X0057081Y0316713D01*
X0056905Y0316909D02*
X0052062Y0316909D01*
X0052073Y0317104D02*
X0056729Y0317104D01*
X0056553Y0317299D02*
X0052083Y0317299D01*
X0052093Y0317495D02*
X0056377Y0317495D01*
X0056201Y0317690D02*
X0052103Y0317690D01*
X0052114Y0317885D02*
X0056025Y0317885D01*
X0055849Y0318081D02*
X0052124Y0318081D01*
X0052134Y0318276D02*
X0055674Y0318276D01*
X0055498Y0318471D02*
X0052144Y0318471D01*
X0052154Y0318667D02*
X0055322Y0318667D01*
X0055146Y0318862D02*
X0052165Y0318862D01*
X0052175Y0319058D02*
X0054970Y0319058D01*
X0054794Y0319253D02*
X0052185Y0319253D01*
X0052195Y0319448D02*
X0054618Y0319448D01*
X0054442Y0319644D02*
X0052206Y0319644D01*
X0052216Y0319839D02*
X0054266Y0319839D01*
X0054090Y0320034D02*
X0052226Y0320034D01*
X0052236Y0320230D02*
X0053914Y0320230D01*
X0053739Y0320425D02*
X0052247Y0320425D01*
X0052257Y0320620D02*
X0053563Y0320620D01*
X0053387Y0320816D02*
X0052267Y0320816D01*
X0052277Y0321011D02*
X0053211Y0321011D01*
X0053035Y0321206D02*
X0052288Y0321206D01*
X0052298Y0321402D02*
X0052859Y0321402D01*
X0052683Y0321597D02*
X0052308Y0321597D01*
X0052318Y0321793D02*
X0052507Y0321793D01*
X0052331Y0321988D02*
X0052329Y0321988D01*
X0213888Y0313587D02*
X0219117Y0313587D01*
X0218900Y0313392D02*
X0213878Y0313392D01*
X0213868Y0313197D02*
X0218683Y0313197D01*
X0218466Y0313001D02*
X0213858Y0313001D01*
X0213847Y0312806D02*
X0218249Y0312806D01*
X0218032Y0312611D02*
X0213837Y0312611D01*
X0213827Y0312415D02*
X0217815Y0312415D01*
X0217598Y0312220D02*
X0213817Y0312220D01*
X0213806Y0312024D02*
X0217381Y0312024D01*
X0217164Y0311829D02*
X0213796Y0311829D01*
X0213786Y0311634D02*
X0216947Y0311634D01*
X0216730Y0311438D02*
X0213776Y0311438D01*
X0213765Y0311243D02*
X0216513Y0311243D01*
X0216296Y0311048D02*
X0213755Y0311048D01*
X0213745Y0310852D02*
X0216079Y0310852D01*
X0215862Y0310657D02*
X0213735Y0310657D01*
X0213724Y0310462D02*
X0215645Y0310462D01*
X0215428Y0310266D02*
X0213714Y0310266D01*
X0213704Y0310071D02*
X0215211Y0310071D01*
X0214994Y0309876D02*
X0213694Y0309876D01*
X0213683Y0309680D02*
X0214777Y0309680D01*
X0214560Y0309485D02*
X0213673Y0309485D01*
X0213663Y0309289D02*
X0214343Y0309289D01*
X0214126Y0309094D02*
X0213653Y0309094D01*
X0213643Y0308899D02*
X0213909Y0308899D01*
X0213692Y0308703D02*
X0213632Y0308703D01*
X0213629Y0308647D02*
X0214329Y0321991D01*
X0220651Y0314969D01*
X0213629Y0308647D01*
X0213898Y0313783D02*
X0219334Y0313783D01*
X0219551Y0313978D02*
X0213909Y0313978D01*
X0213919Y0314173D02*
X0219768Y0314173D01*
X0219985Y0314369D02*
X0213929Y0314369D01*
X0213939Y0314564D02*
X0220202Y0314564D01*
X0220418Y0314760D02*
X0213950Y0314760D01*
X0213960Y0314955D02*
X0220635Y0314955D01*
X0220488Y0315150D02*
X0213970Y0315150D01*
X0213980Y0315346D02*
X0220312Y0315346D01*
X0220136Y0315541D02*
X0213991Y0315541D01*
X0214001Y0315736D02*
X0219960Y0315736D01*
X0219784Y0315932D02*
X0214011Y0315932D01*
X0214021Y0316127D02*
X0219608Y0316127D01*
X0219433Y0316322D02*
X0214032Y0316322D01*
X0214042Y0316518D02*
X0219257Y0316518D01*
X0219081Y0316713D02*
X0214052Y0316713D01*
X0214062Y0316909D02*
X0218905Y0316909D01*
X0218729Y0317104D02*
X0214073Y0317104D01*
X0214083Y0317299D02*
X0218553Y0317299D01*
X0218377Y0317495D02*
X0214093Y0317495D01*
X0214103Y0317690D02*
X0218201Y0317690D01*
X0218025Y0317885D02*
X0214114Y0317885D01*
X0214124Y0318081D02*
X0217849Y0318081D01*
X0217674Y0318276D02*
X0214134Y0318276D01*
X0214144Y0318471D02*
X0217498Y0318471D01*
X0217322Y0318667D02*
X0214154Y0318667D01*
X0214165Y0318862D02*
X0217146Y0318862D01*
X0216970Y0319058D02*
X0214175Y0319058D01*
X0214185Y0319253D02*
X0216794Y0319253D01*
X0216618Y0319448D02*
X0214195Y0319448D01*
X0214206Y0319644D02*
X0216442Y0319644D01*
X0216266Y0319839D02*
X0214216Y0319839D01*
X0214226Y0320034D02*
X0216090Y0320034D01*
X0215914Y0320230D02*
X0214236Y0320230D01*
X0214247Y0320425D02*
X0215739Y0320425D01*
X0215563Y0320620D02*
X0214257Y0320620D01*
X0214267Y0320816D02*
X0215387Y0320816D01*
X0215211Y0321011D02*
X0214277Y0321011D01*
X0214288Y0321206D02*
X0215035Y0321206D01*
X0214859Y0321402D02*
X0214298Y0321402D01*
X0214308Y0321597D02*
X0214683Y0321597D01*
X0214507Y0321793D02*
X0214318Y0321793D01*
X0214329Y0321988D02*
X0214331Y0321988D01*
X0214329Y0159991D02*
X0213629Y0146647D01*
X0220651Y0152969D01*
X0214329Y0159991D01*
X0214321Y0159838D02*
X0214467Y0159838D01*
X0214310Y0159642D02*
X0214643Y0159642D01*
X0214818Y0159447D02*
X0214300Y0159447D01*
X0214290Y0159252D02*
X0214994Y0159252D01*
X0215170Y0159056D02*
X0214280Y0159056D01*
X0214269Y0158861D02*
X0215346Y0158861D01*
X0215522Y0158666D02*
X0214259Y0158666D01*
X0214249Y0158470D02*
X0215698Y0158470D01*
X0215874Y0158275D02*
X0214239Y0158275D01*
X0214228Y0158079D02*
X0216050Y0158079D01*
X0216226Y0157884D02*
X0214218Y0157884D01*
X0214208Y0157689D02*
X0216402Y0157689D01*
X0216577Y0157493D02*
X0214198Y0157493D01*
X0214188Y0157298D02*
X0216753Y0157298D01*
X0216929Y0157103D02*
X0214177Y0157103D01*
X0214167Y0156907D02*
X0217105Y0156907D01*
X0217281Y0156712D02*
X0214157Y0156712D01*
X0214147Y0156517D02*
X0217457Y0156517D01*
X0217633Y0156321D02*
X0214136Y0156321D01*
X0214126Y0156126D02*
X0217809Y0156126D01*
X0217985Y0155930D02*
X0214116Y0155930D01*
X0214106Y0155735D02*
X0218161Y0155735D01*
X0218337Y0155540D02*
X0214095Y0155540D01*
X0214085Y0155344D02*
X0218512Y0155344D01*
X0218688Y0155149D02*
X0214075Y0155149D01*
X0214065Y0154954D02*
X0218864Y0154954D01*
X0219040Y0154758D02*
X0214054Y0154758D01*
X0214044Y0154563D02*
X0219216Y0154563D01*
X0219392Y0154368D02*
X0214034Y0154368D01*
X0214024Y0154172D02*
X0219568Y0154172D01*
X0219744Y0153977D02*
X0214013Y0153977D01*
X0214003Y0153781D02*
X0219920Y0153781D01*
X0220096Y0153586D02*
X0213993Y0153586D01*
X0213983Y0153391D02*
X0220271Y0153391D01*
X0220447Y0153195D02*
X0213973Y0153195D01*
X0213962Y0153000D02*
X0220623Y0153000D01*
X0220469Y0152805D02*
X0213952Y0152805D01*
X0213942Y0152609D02*
X0220252Y0152609D01*
X0220035Y0152414D02*
X0213932Y0152414D01*
X0213921Y0152219D02*
X0219818Y0152219D01*
X0219601Y0152023D02*
X0213911Y0152023D01*
X0213901Y0151828D02*
X0219384Y0151828D01*
X0219167Y0151633D02*
X0213891Y0151633D01*
X0213880Y0151437D02*
X0218950Y0151437D01*
X0218733Y0151242D02*
X0213870Y0151242D01*
X0213860Y0151046D02*
X0218516Y0151046D01*
X0218299Y0150851D02*
X0213850Y0150851D01*
X0213839Y0150656D02*
X0218082Y0150656D01*
X0217865Y0150460D02*
X0213829Y0150460D01*
X0213819Y0150265D02*
X0217648Y0150265D01*
X0217431Y0150070D02*
X0213809Y0150070D01*
X0213798Y0149874D02*
X0217214Y0149874D01*
X0216997Y0149679D02*
X0213788Y0149679D01*
X0213778Y0149484D02*
X0216780Y0149484D01*
X0216563Y0149288D02*
X0213768Y0149288D01*
X0213758Y0149093D02*
X0216346Y0149093D01*
X0216129Y0148897D02*
X0213747Y0148897D01*
X0213737Y0148702D02*
X0215912Y0148702D01*
X0215695Y0148507D02*
X0213727Y0148507D01*
X0213717Y0148311D02*
X0215478Y0148311D01*
X0215261Y0148116D02*
X0213706Y0148116D01*
X0213696Y0147921D02*
X0215044Y0147921D01*
X0214827Y0147725D02*
X0213686Y0147725D01*
X0213676Y0147530D02*
X0214610Y0147530D01*
X0214393Y0147335D02*
X0213665Y0147335D01*
X0213655Y0147139D02*
X0214176Y0147139D01*
X0213959Y0146944D02*
X0213645Y0146944D01*
X0213635Y0146748D02*
X0213743Y0146748D01*
D18*
G36*
X0204963Y0138739D02*
X0193900Y0151025D01*
X0198873Y0155503D01*
X0209936Y0143217D01*
X0204963Y0138739D01*
G37*
G36*
X0042963Y0138739D02*
X0031900Y0151025D01*
X0036873Y0155503D01*
X0047936Y0143217D01*
X0042963Y0138739D01*
G37*
G36*
X0042963Y0300739D02*
X0031900Y0313025D01*
X0036873Y0317503D01*
X0047936Y0305217D01*
X0042963Y0300739D01*
G37*
G36*
X0204963Y0300739D02*
X0193900Y0313025D01*
X0198873Y0317503D01*
X0209936Y0305217D01*
X0204963Y0300739D01*
G37*
D19*
X0218750Y0230750D03*
X0222750Y0230750D03*
X0172750Y0225750D03*
X0168750Y0225750D03*
X0164750Y0225750D03*
X0060750Y0230750D03*
X0056750Y0230750D03*
X0056750Y0068750D03*
X0060750Y0068750D03*
X0164750Y0063750D03*
X0168750Y0063750D03*
X0172750Y0063750D03*
X0218750Y0068750D03*
X0222750Y0068750D03*
X0326750Y0063750D03*
X0330750Y0063750D03*
X0334750Y0063750D03*
X0334750Y0225750D03*
X0330750Y0225750D03*
X0326750Y0225750D03*
D20*
X0328000Y0225662D02*
X0333500Y0225662D01*
X0333500Y0225250D02*
X0333500Y0226250D01*
X0328000Y0226250D01*
X0328000Y0225250D01*
X0333500Y0225250D01*
X0333500Y0226160D02*
X0328000Y0226160D01*
X0221500Y0230250D02*
X0220000Y0230250D01*
X0220000Y0231250D01*
X0221500Y0231250D01*
X0221500Y0230250D01*
X0221500Y0230647D02*
X0220000Y0230647D01*
X0220000Y0231146D02*
X0221500Y0231146D01*
X0171500Y0226250D02*
X0171500Y0225250D01*
X0166000Y0225250D01*
X0166000Y0226250D01*
X0171500Y0226250D01*
X0171500Y0226160D02*
X0166000Y0226160D01*
X0166000Y0225662D02*
X0171500Y0225662D01*
X0059500Y0230250D02*
X0058000Y0230250D01*
X0058000Y0231250D01*
X0059500Y0231250D01*
X0059500Y0230250D01*
X0059500Y0230647D02*
X0058000Y0230647D01*
X0058000Y0231146D02*
X0059500Y0231146D01*
X0059500Y0069250D02*
X0058000Y0069250D01*
X0058000Y0068250D01*
X0059500Y0068250D01*
X0059500Y0069250D01*
X0059500Y0069129D02*
X0058000Y0069129D01*
X0058000Y0068631D02*
X0059500Y0068631D01*
X0166000Y0064250D02*
X0171500Y0064250D01*
X0171500Y0063250D01*
X0166000Y0063250D01*
X0166000Y0064250D01*
X0166000Y0064144D02*
X0171500Y0064144D01*
X0171500Y0063646D02*
X0166000Y0063646D01*
X0220000Y0068250D02*
X0220000Y0069250D01*
X0221500Y0069250D01*
X0221500Y0068250D01*
X0220000Y0068250D01*
X0220000Y0068631D02*
X0221500Y0068631D01*
X0221500Y0069129D02*
X0220000Y0069129D01*
X0328000Y0064250D02*
X0333500Y0064250D01*
X0333500Y0063250D01*
X0328000Y0063250D01*
X0328000Y0064250D01*
X0328000Y0064144D02*
X0333500Y0064144D01*
X0333500Y0063646D02*
X0328000Y0063646D01*
D21*
X0204623Y0066670D02*
X0201877Y0066670D01*
X0204623Y0066670D02*
X0204623Y0063924D01*
X0201877Y0063924D01*
X0201877Y0066670D01*
X0201877Y0065814D02*
X0204623Y0065814D01*
X0204623Y0073576D02*
X0201877Y0073576D01*
X0204623Y0073576D02*
X0204623Y0070830D01*
X0201877Y0070830D01*
X0201877Y0073576D01*
X0201877Y0072720D02*
X0204623Y0072720D01*
X0042623Y0073576D02*
X0039877Y0073576D01*
X0042623Y0073576D02*
X0042623Y0070830D01*
X0039877Y0070830D01*
X0039877Y0073576D01*
X0039877Y0072720D02*
X0042623Y0072720D01*
X0042623Y0066670D02*
X0039877Y0066670D01*
X0042623Y0066670D02*
X0042623Y0063924D01*
X0039877Y0063924D01*
X0039877Y0066670D01*
X0039877Y0065814D02*
X0042623Y0065814D01*
X0042623Y0228670D02*
X0039877Y0228670D01*
X0042623Y0228670D02*
X0042623Y0225924D01*
X0039877Y0225924D01*
X0039877Y0228670D01*
X0039877Y0227814D02*
X0042623Y0227814D01*
X0042623Y0235576D02*
X0039877Y0235576D01*
X0042623Y0235576D02*
X0042623Y0232830D01*
X0039877Y0232830D01*
X0039877Y0235576D01*
X0039877Y0234720D02*
X0042623Y0234720D01*
X0201877Y0235576D02*
X0204623Y0235576D01*
X0204623Y0232830D01*
X0201877Y0232830D01*
X0201877Y0235576D01*
X0201877Y0234720D02*
X0204623Y0234720D01*
X0204623Y0228670D02*
X0201877Y0228670D01*
X0204623Y0228670D02*
X0204623Y0225924D01*
X0201877Y0225924D01*
X0201877Y0228670D01*
X0201877Y0227814D02*
X0204623Y0227814D01*
D22*
X0230750Y0183278D03*
X0230750Y0174222D03*
X0068750Y0174222D03*
X0068750Y0183278D03*
X0068750Y0336222D03*
X0068750Y0345278D03*
X0230750Y0345278D03*
X0230750Y0336222D03*
D23*
X0242699Y0285711D03*
X0242699Y0278230D03*
X0242699Y0270750D03*
X0242699Y0263270D03*
X0242699Y0255789D03*
X0298801Y0255789D03*
X0298801Y0263270D03*
X0298801Y0270750D03*
X0298801Y0278230D03*
X0298801Y0285711D03*
X0136801Y0285711D03*
X0136801Y0278230D03*
X0136801Y0270750D03*
X0136801Y0263270D03*
X0136801Y0255789D03*
X0080699Y0255789D03*
X0080699Y0263270D03*
X0080699Y0270750D03*
X0080699Y0278230D03*
X0080699Y0285711D03*
X0080699Y0123711D03*
X0080699Y0116230D03*
X0080699Y0108750D03*
X0080699Y0101270D03*
X0080699Y0093789D03*
X0136801Y0093789D03*
X0136801Y0101270D03*
X0136801Y0108750D03*
X0136801Y0116230D03*
X0136801Y0123711D03*
X0242699Y0123711D03*
X0242699Y0116230D03*
X0242699Y0108750D03*
X0242699Y0101270D03*
X0242699Y0093789D03*
X0298801Y0093789D03*
X0298801Y0101270D03*
X0298801Y0108750D03*
X0298801Y0116230D03*
X0298801Y0123711D03*
D24*
X0285711Y0136801D03*
X0278230Y0136801D03*
X0270750Y0136801D03*
X0263270Y0136801D03*
X0255789Y0136801D03*
X0255789Y0080699D03*
X0263270Y0080699D03*
X0270750Y0080699D03*
X0278230Y0080699D03*
X0285711Y0080699D03*
X0123711Y0080699D03*
X0116230Y0080699D03*
X0108750Y0080699D03*
X0101270Y0080699D03*
X0093789Y0080699D03*
X0093789Y0136801D03*
X0101270Y0136801D03*
X0108750Y0136801D03*
X0116230Y0136801D03*
X0123711Y0136801D03*
X0123711Y0242699D03*
X0116230Y0242699D03*
X0108750Y0242699D03*
X0101270Y0242699D03*
X0093789Y0242699D03*
X0093789Y0298801D03*
X0101270Y0298801D03*
X0108750Y0298801D03*
X0116230Y0298801D03*
X0123711Y0298801D03*
X0255789Y0298801D03*
X0263270Y0298801D03*
X0270750Y0298801D03*
X0278230Y0298801D03*
X0285711Y0298801D03*
X0285711Y0242699D03*
X0278230Y0242699D03*
X0270750Y0242699D03*
X0263270Y0242699D03*
X0255789Y0242699D03*
D25*
X0323750Y0359000D03*
X0055750Y0359000D03*
D26*
X0052185Y0020500D02*
X0052187Y0020619D01*
X0052193Y0020738D01*
X0052203Y0020857D01*
X0052217Y0020975D01*
X0052235Y0021093D01*
X0052256Y0021210D01*
X0052282Y0021326D01*
X0052312Y0021442D01*
X0052345Y0021556D01*
X0052382Y0021669D01*
X0052423Y0021781D01*
X0052468Y0021892D01*
X0052516Y0022001D01*
X0052568Y0022108D01*
X0052624Y0022213D01*
X0052683Y0022317D01*
X0052745Y0022418D01*
X0052811Y0022518D01*
X0052880Y0022615D01*
X0052952Y0022709D01*
X0053028Y0022802D01*
X0053106Y0022891D01*
X0053187Y0022978D01*
X0053272Y0023063D01*
X0053359Y0023144D01*
X0053448Y0023222D01*
X0053541Y0023298D01*
X0053635Y0023370D01*
X0053732Y0023439D01*
X0053832Y0023505D01*
X0053933Y0023567D01*
X0054037Y0023626D01*
X0054142Y0023682D01*
X0054249Y0023734D01*
X0054358Y0023782D01*
X0054469Y0023827D01*
X0054581Y0023868D01*
X0054694Y0023905D01*
X0054808Y0023938D01*
X0054924Y0023968D01*
X0055040Y0023994D01*
X0055157Y0024015D01*
X0055275Y0024033D01*
X0055393Y0024047D01*
X0055512Y0024057D01*
X0055631Y0024063D01*
X0055750Y0024065D01*
X0055869Y0024063D01*
X0055988Y0024057D01*
X0056107Y0024047D01*
X0056225Y0024033D01*
X0056343Y0024015D01*
X0056460Y0023994D01*
X0056576Y0023968D01*
X0056692Y0023938D01*
X0056806Y0023905D01*
X0056919Y0023868D01*
X0057031Y0023827D01*
X0057142Y0023782D01*
X0057251Y0023734D01*
X0057358Y0023682D01*
X0057463Y0023626D01*
X0057567Y0023567D01*
X0057668Y0023505D01*
X0057768Y0023439D01*
X0057865Y0023370D01*
X0057959Y0023298D01*
X0058052Y0023222D01*
X0058141Y0023144D01*
X0058228Y0023063D01*
X0058313Y0022978D01*
X0058394Y0022891D01*
X0058472Y0022802D01*
X0058548Y0022709D01*
X0058620Y0022615D01*
X0058689Y0022518D01*
X0058755Y0022418D01*
X0058817Y0022317D01*
X0058876Y0022213D01*
X0058932Y0022108D01*
X0058984Y0022001D01*
X0059032Y0021892D01*
X0059077Y0021781D01*
X0059118Y0021669D01*
X0059155Y0021556D01*
X0059188Y0021442D01*
X0059218Y0021326D01*
X0059244Y0021210D01*
X0059265Y0021093D01*
X0059283Y0020975D01*
X0059297Y0020857D01*
X0059307Y0020738D01*
X0059313Y0020619D01*
X0059315Y0020500D01*
X0059313Y0020381D01*
X0059307Y0020262D01*
X0059297Y0020143D01*
X0059283Y0020025D01*
X0059265Y0019907D01*
X0059244Y0019790D01*
X0059218Y0019674D01*
X0059188Y0019558D01*
X0059155Y0019444D01*
X0059118Y0019331D01*
X0059077Y0019219D01*
X0059032Y0019108D01*
X0058984Y0018999D01*
X0058932Y0018892D01*
X0058876Y0018787D01*
X0058817Y0018683D01*
X0058755Y0018582D01*
X0058689Y0018482D01*
X0058620Y0018385D01*
X0058548Y0018291D01*
X0058472Y0018198D01*
X0058394Y0018109D01*
X0058313Y0018022D01*
X0058228Y0017937D01*
X0058141Y0017856D01*
X0058052Y0017778D01*
X0057959Y0017702D01*
X0057865Y0017630D01*
X0057768Y0017561D01*
X0057668Y0017495D01*
X0057567Y0017433D01*
X0057463Y0017374D01*
X0057358Y0017318D01*
X0057251Y0017266D01*
X0057142Y0017218D01*
X0057031Y0017173D01*
X0056919Y0017132D01*
X0056806Y0017095D01*
X0056692Y0017062D01*
X0056576Y0017032D01*
X0056460Y0017006D01*
X0056343Y0016985D01*
X0056225Y0016967D01*
X0056107Y0016953D01*
X0055988Y0016943D01*
X0055869Y0016937D01*
X0055750Y0016935D01*
X0055631Y0016937D01*
X0055512Y0016943D01*
X0055393Y0016953D01*
X0055275Y0016967D01*
X0055157Y0016985D01*
X0055040Y0017006D01*
X0054924Y0017032D01*
X0054808Y0017062D01*
X0054694Y0017095D01*
X0054581Y0017132D01*
X0054469Y0017173D01*
X0054358Y0017218D01*
X0054249Y0017266D01*
X0054142Y0017318D01*
X0054037Y0017374D01*
X0053933Y0017433D01*
X0053832Y0017495D01*
X0053732Y0017561D01*
X0053635Y0017630D01*
X0053541Y0017702D01*
X0053448Y0017778D01*
X0053359Y0017856D01*
X0053272Y0017937D01*
X0053187Y0018022D01*
X0053106Y0018109D01*
X0053028Y0018198D01*
X0052952Y0018291D01*
X0052880Y0018385D01*
X0052811Y0018482D01*
X0052745Y0018582D01*
X0052683Y0018683D01*
X0052624Y0018787D01*
X0052568Y0018892D01*
X0052516Y0018999D01*
X0052468Y0019108D01*
X0052423Y0019219D01*
X0052382Y0019331D01*
X0052345Y0019444D01*
X0052312Y0019558D01*
X0052282Y0019674D01*
X0052256Y0019790D01*
X0052235Y0019907D01*
X0052217Y0020025D01*
X0052203Y0020143D01*
X0052193Y0020262D01*
X0052187Y0020381D01*
X0052185Y0020500D01*
D27*
X0055750Y0020500D03*
M02*
