%
M48
M72
T01C0.0120
T02C0.0400
T03C0.1300
%
T01
X6875Y6375
X7875Y6375
X7875Y7375
X8875Y7375
X8875Y6375
X9875Y4625
X7875Y4375
X6875Y7875
X6875Y8875
X6875Y9875
X5875Y9875
X5875Y8875
X4625Y9825
X4375Y10525
X5375Y10775
X3375Y10875
X6875Y12375
X6875Y13375
X6875Y14375
X6125Y14875
X6875Y15375
X7875Y15375
X7875Y14375
X8875Y14375
X8875Y15375
X9375Y15375
X9375Y16375
X8875Y16375
X7875Y16375
X6875Y16375
X9875Y16875
X10875Y17375
X12875Y16375
X12875Y15375
X12875Y14375
X13875Y14375
X13875Y15375
X14875Y14375
X14875Y13375
X14875Y12375
X15875Y12375
X13375Y13375
X12375Y12375
X12375Y11375
X11375Y11375
X11375Y12375
X10375Y12375
X10375Y11375
X9375Y11375
X9375Y12375
X8375Y13375
X9375Y10375
X9375Y9375
X10375Y9375
X10375Y10375
X11375Y10375
X11375Y9375
X12375Y9375
X12375Y10375
X13375Y8375
X14375Y8375
X15375Y8375
X15375Y9375
X14575Y9375
X13875Y7375
X12875Y7375
X12875Y6375
X13210Y5375
X14710Y5375
X15375Y6875
X16875Y5375
X17375Y7875
X17375Y8875
X17375Y9875
X18375Y10375
X19575Y10875
X20575Y10525
X20825Y9825
X21575Y10775
X22075Y9875
X22075Y8875
X23075Y8875
X23075Y9875
X24575Y8375
X24075Y7375
X24075Y6375
X25075Y6375
X25075Y7375
X25575Y9375
X25575Y10375
X26575Y10375
X26575Y9375
X27575Y9375
X27575Y10375
X28575Y10375
X28575Y9375
X29575Y8375
X30575Y8375
X31575Y8375
X31575Y9375
X30775Y9375
X30075Y7375
X29075Y7375
X29075Y6375
X29410Y5375
X30910Y5375
X31575Y6875
X33075Y5375
X33575Y7875
X33575Y8875
X33575Y9875
X34575Y10375
X32075Y12375
X31075Y12375
X31075Y13375
X31075Y14375
X30075Y14375
X30075Y15375
X29075Y15375
X29075Y14375
X29575Y13375
X28575Y12375
X28575Y11375
X27575Y11375
X27575Y12375
X26575Y12375
X26575Y11375
X25575Y11375
X25575Y12375
X24575Y13375
X24075Y14375
X24075Y15375
X25075Y15375
X25575Y15375
X25075Y14375
X25075Y16375
X25575Y16375
X26075Y16875
X27075Y17375
X29075Y16375
X32575Y17875
X33575Y16875
X34575Y16875
X34575Y15375
X33075Y21575
X31575Y23075
X31575Y24575
X31575Y25575
X30775Y25575
X30575Y24575
X29575Y24575
X29075Y23575
X30075Y23575
X29075Y22575
X29410Y21575
X30910Y21575
X33575Y24075
X33575Y25075
X33575Y26075
X34575Y26575
X32075Y28575
X31075Y28575
X31075Y29575
X31075Y30575
X30075Y30575
X29075Y30575
X29575Y29575
X28575Y28575
X27575Y28575
X26575Y28575
X25575Y28575
X24575Y29575
X24075Y30575
X25075Y30575
X25075Y31575
X25575Y31575
X25575Y32575
X25075Y32575
X24075Y32575
X24075Y31575
X23075Y31575
X22325Y31075
X23075Y30575
X23075Y29575
X23075Y28575
X21575Y26975
X22075Y26075
X23075Y26075
X23075Y25075
X23075Y24075
X22075Y25075
X20825Y26025
X20575Y26725
X19575Y27075
X18375Y26575
X17375Y26075
X17375Y25075
X17375Y24075
X15375Y24575
X15375Y25575
X14575Y25575
X14375Y24575
X13375Y24575
X12875Y23575
X13875Y23575
X12875Y22575
X13210Y21575
X14710Y21575
X15375Y23075
X16875Y21575
X16375Y17875
X17375Y16875
X18375Y16875
X18375Y15375
X22325Y14875
X23075Y14375
X23075Y15375
X23075Y16375
X24075Y16375
X23075Y13375
X23075Y12375
X23075Y7875
X23075Y6375
X24075Y4375
X26075Y4625
X24075Y20575
X24075Y22575
X25075Y22575
X25075Y23575
X24075Y23575
X24575Y24575
X25575Y25575
X26575Y25575
X27575Y25575
X28575Y25575
X28575Y26575
X28575Y27575
X27575Y27575
X27575Y26575
X26575Y26575
X26575Y27575
X25575Y27575
X25575Y26575
X23075Y22575
X26075Y20825
X15875Y28575
X14875Y28575
X14875Y29575
X14875Y30575
X13875Y30575
X12875Y30575
X13375Y29575
X12375Y28575
X11375Y28575
X11375Y27575
X11375Y26575
X12375Y26575
X12375Y27575
X12375Y25575
X11375Y25575
X10375Y25575
X9375Y25575
X8375Y24575
X7875Y23575
X8875Y23575
X8875Y22575
X7875Y22575
X6875Y22575
X6875Y24075
X6875Y25075
X6875Y26075
X5875Y26075
X5375Y26975
X4375Y26725
X4625Y26025
X5875Y25075
X3375Y27075
X6875Y28575
X6875Y29575
X6875Y30575
X6125Y31075
X6875Y31575
X6875Y32575
X7875Y32575
X7875Y31575
X8875Y31575
X9375Y31575
X9375Y32575
X8875Y32575
X9875Y33075
X10875Y33575
X12875Y32575
X12875Y31575
X13875Y31575
X16375Y34075
X17375Y33075
X18375Y33075
X18375Y31575
X23075Y32575
X26075Y33075
X27075Y33575
X29075Y32575
X29075Y31575
X30075Y31575
X32575Y34075
X33575Y33075
X34575Y33075
X34575Y31575
X10375Y28575
X9375Y28575
X8375Y29575
X7875Y30575
X8875Y30575
X9375Y27575
X9375Y26575
X10375Y26575
X10375Y27575
X9875Y20825
X7875Y20575
X8375Y8375
T02
X8375Y3375
X7375Y3375
X9375Y3375
X10375Y3375
X11375Y3375
X12375Y3375
X13375Y3375
X14375Y3375
X23575Y3375
X24575Y3375
X25575Y3375
X26575Y3375
X27575Y3375
X28575Y3375
X29575Y3375
X30575Y3375
X29575Y18375
X28575Y18375
X27575Y18375
X26575Y18375
X25575Y18375
X24575Y18375
X24575Y19575
X25575Y19575
X26575Y19575
X27575Y19575
X28575Y19575
X29575Y19575
X30575Y19575
X23575Y19575
X14375Y19575
X13375Y19575
X12375Y19575
X11375Y19575
X10375Y19575
X9375Y19575
X8375Y19575
X7375Y19575
X8375Y18375
X9375Y18375
X10375Y18375
X11375Y18375
X12375Y18375
X13375Y18375
X13375Y34575
X12375Y34575
X11375Y34575
X10375Y34575
X9375Y34575
X8375Y34575
X24575Y34575
X25575Y34575
X26575Y34575
X27575Y34575
X28575Y34575
X29575Y34575
T03
X3875Y3875
X17875Y3875
X20075Y3875
X34075Y3875
X34075Y17875
X34075Y20075
X20075Y20075
X20075Y17875
X17875Y17875
X17875Y20075
X3875Y20075
X3875Y17875
X3875Y34075
X17875Y34075
X20075Y34075
X34075Y34075
M30
