G75*
%MOIN*%
%OFA0B0*%
%FSLAX25Y25*%
%IPPOS*%
%LPD*%
%AMOC8*
5,1,8,0,0,1.08239X$1,22.5*
%
%ADD10C,0.13800*%
%ADD11C,0.03300*%
%ADD12R,0.08674X0.05524*%
%ADD13R,0.06115X0.03162*%
%ADD14C,0.08200*%
%ADD15R,0.05131X0.04737*%
%ADD16R,0.04737X0.05131*%
%ADD17R,0.09658X0.04146*%
%ADD18R,0.03300X0.05800*%
%ADD19C,0.00500*%
%ADD20C,0.01990*%
%ADD21R,0.04068X0.03280*%
%ADD22R,0.11627X0.07099*%
%ADD23R,0.07099X0.11627*%
%ADD24C,0.04737*%
%ADD25C,0.05000*%
%ADD26C,0.06706*%
D10*
X0038750Y0038750D03*
X0178750Y0038750D03*
X0200750Y0038750D03*
X0340750Y0038750D03*
X0340750Y0178750D03*
X0340750Y0200750D03*
X0200750Y0200750D03*
X0200750Y0178750D03*
X0178750Y0178750D03*
X0178750Y0200750D03*
X0038750Y0200750D03*
X0038750Y0178750D03*
X0038750Y0340750D03*
X0178750Y0340750D03*
X0200750Y0340750D03*
X0340750Y0340750D03*
D11*
X0193250Y0348250D03*
X0031250Y0348250D03*
X0186250Y0193250D03*
X0193250Y0186250D03*
X0348250Y0193250D03*
X0348250Y0031250D03*
X0186250Y0031250D03*
X0031250Y0186250D03*
D12*
X0034281Y0119774D03*
X0034281Y0097726D03*
X0183219Y0097726D03*
X0196281Y0097726D03*
X0196281Y0119774D03*
X0183219Y0119774D03*
X0183219Y0259726D03*
X0196281Y0259726D03*
X0196281Y0281774D03*
X0183219Y0281774D03*
X0034281Y0281774D03*
X0034281Y0259726D03*
X0345219Y0259726D03*
X0345219Y0281774D03*
X0345219Y0119774D03*
X0345219Y0097726D03*
D13*
X0330750Y0102844D03*
X0330750Y0106781D03*
X0330750Y0110719D03*
X0330750Y0114656D03*
X0210750Y0114656D03*
X0210750Y0110719D03*
X0210750Y0106781D03*
X0210750Y0102844D03*
X0168750Y0102844D03*
X0168750Y0106781D03*
X0168750Y0110719D03*
X0168750Y0114656D03*
X0048750Y0114656D03*
X0048750Y0110719D03*
X0048750Y0106781D03*
X0048750Y0102844D03*
X0048750Y0264844D03*
X0048750Y0268781D03*
X0048750Y0272719D03*
X0048750Y0276656D03*
X0168750Y0276656D03*
X0168750Y0272719D03*
X0168750Y0268781D03*
X0168750Y0264844D03*
X0210750Y0264844D03*
X0210750Y0268781D03*
X0210750Y0272719D03*
X0210750Y0276656D03*
X0330750Y0276656D03*
X0330750Y0272719D03*
X0330750Y0268781D03*
X0330750Y0264844D03*
D14*
X0305750Y0195750D03*
X0295750Y0195750D03*
X0285750Y0195750D03*
X0275750Y0195750D03*
X0265750Y0195750D03*
X0255750Y0195750D03*
X0245750Y0195750D03*
X0235750Y0195750D03*
X0245750Y0183750D03*
X0255750Y0183750D03*
X0265750Y0183750D03*
X0275750Y0183750D03*
X0285750Y0183750D03*
X0295750Y0183750D03*
X0143750Y0195750D03*
X0133750Y0195750D03*
X0123750Y0195750D03*
X0113750Y0195750D03*
X0103750Y0195750D03*
X0093750Y0195750D03*
X0083750Y0195750D03*
X0073750Y0195750D03*
X0083750Y0183750D03*
X0093750Y0183750D03*
X0103750Y0183750D03*
X0113750Y0183750D03*
X0123750Y0183750D03*
X0133750Y0183750D03*
X0133750Y0033750D03*
X0123750Y0033750D03*
X0113750Y0033750D03*
X0103750Y0033750D03*
X0093750Y0033750D03*
X0083750Y0033750D03*
X0073750Y0033750D03*
X0143750Y0033750D03*
X0235750Y0033750D03*
X0245750Y0033750D03*
X0255750Y0033750D03*
X0265750Y0033750D03*
X0275750Y0033750D03*
X0285750Y0033750D03*
X0295750Y0033750D03*
X0305750Y0033750D03*
X0295750Y0345750D03*
X0285750Y0345750D03*
X0275750Y0345750D03*
X0265750Y0345750D03*
X0255750Y0345750D03*
X0245750Y0345750D03*
X0133750Y0345750D03*
X0123750Y0345750D03*
X0113750Y0345750D03*
X0103750Y0345750D03*
X0093750Y0345750D03*
X0083750Y0345750D03*
D15*
X0042096Y0250750D03*
X0035404Y0250750D03*
X0125404Y0220750D03*
X0132096Y0220750D03*
X0140404Y0220750D03*
X0147096Y0220750D03*
X0197404Y0250750D03*
X0204096Y0250750D03*
X0287404Y0220750D03*
X0294096Y0220750D03*
X0302404Y0220750D03*
X0309096Y0220750D03*
X0204096Y0088750D03*
X0197404Y0088750D03*
X0147096Y0058750D03*
X0140404Y0058750D03*
X0132096Y0058750D03*
X0125404Y0058750D03*
X0042096Y0088750D03*
X0035404Y0088750D03*
X0287404Y0058750D03*
X0294096Y0058750D03*
X0302404Y0058750D03*
X0309096Y0058750D03*
D16*
X0320750Y0060404D03*
X0320750Y0067096D03*
X0340750Y0067096D03*
X0340750Y0060404D03*
X0300750Y0165404D03*
X0295750Y0165404D03*
X0295750Y0172096D03*
X0300750Y0172096D03*
X0320750Y0222404D03*
X0320750Y0229096D03*
X0340750Y0229096D03*
X0340750Y0222404D03*
X0300750Y0327404D03*
X0295750Y0327404D03*
X0295750Y0334096D03*
X0300750Y0334096D03*
X0223250Y0337404D03*
X0223250Y0344096D03*
X0215750Y0344096D03*
X0215750Y0337404D03*
X0138750Y0334096D03*
X0133750Y0334096D03*
X0133750Y0327404D03*
X0138750Y0327404D03*
X0061250Y0337404D03*
X0061250Y0344096D03*
X0053750Y0344096D03*
X0053750Y0337404D03*
X0048750Y0234096D03*
X0048750Y0227404D03*
X0053750Y0182096D03*
X0053750Y0175404D03*
X0061250Y0175404D03*
X0061250Y0182096D03*
X0133750Y0172096D03*
X0138750Y0172096D03*
X0138750Y0165404D03*
X0133750Y0165404D03*
X0158750Y0222404D03*
X0158750Y0229096D03*
X0178750Y0229096D03*
X0178750Y0222404D03*
X0210750Y0227404D03*
X0210750Y0234096D03*
X0215750Y0182096D03*
X0215750Y0175404D03*
X0223250Y0175404D03*
X0223250Y0182096D03*
X0210750Y0072096D03*
X0210750Y0065404D03*
X0178750Y0067096D03*
X0178750Y0060404D03*
X0158750Y0060404D03*
X0158750Y0067096D03*
X0048750Y0065404D03*
X0048750Y0072096D03*
D17*
G36*
X0052695Y0142501D02*
X0059156Y0135325D01*
X0056075Y0132551D01*
X0049614Y0139727D01*
X0052695Y0142501D01*
G37*
G36*
X0057084Y0146452D02*
X0063545Y0139276D01*
X0060464Y0136502D01*
X0054003Y0143678D01*
X0057084Y0146452D01*
G37*
G36*
X0214695Y0142501D02*
X0221156Y0135325D01*
X0218075Y0132551D01*
X0211614Y0139727D01*
X0214695Y0142501D01*
G37*
G36*
X0219084Y0146452D02*
X0225545Y0139276D01*
X0222464Y0136502D01*
X0216003Y0143678D01*
X0219084Y0146452D01*
G37*
G36*
X0214695Y0304501D02*
X0221156Y0297325D01*
X0218075Y0294551D01*
X0211614Y0301727D01*
X0214695Y0304501D01*
G37*
G36*
X0219084Y0308452D02*
X0225545Y0301276D01*
X0222464Y0298502D01*
X0216003Y0305678D01*
X0219084Y0308452D01*
G37*
G36*
X0057084Y0308452D02*
X0063545Y0301276D01*
X0060464Y0298502D01*
X0054003Y0305678D01*
X0057084Y0308452D01*
G37*
G36*
X0052695Y0304501D02*
X0059156Y0297325D01*
X0056075Y0294551D01*
X0049614Y0301727D01*
X0052695Y0304501D01*
G37*
D18*
X0056750Y0230750D03*
X0060750Y0230750D03*
X0164750Y0225750D03*
X0168750Y0225750D03*
X0172750Y0225750D03*
X0218750Y0230750D03*
X0222750Y0230750D03*
X0326750Y0225750D03*
X0330750Y0225750D03*
X0334750Y0225750D03*
X0222750Y0068750D03*
X0218750Y0068750D03*
X0172750Y0063750D03*
X0168750Y0063750D03*
X0164750Y0063750D03*
X0060750Y0068750D03*
X0056750Y0068750D03*
X0326750Y0063750D03*
X0330750Y0063750D03*
X0334750Y0063750D03*
D19*
X0333500Y0063646D02*
X0328000Y0063646D01*
X0328000Y0063250D02*
X0328000Y0064250D01*
X0333500Y0064250D01*
X0333500Y0063250D01*
X0328000Y0063250D01*
X0328000Y0064144D02*
X0333500Y0064144D01*
X0221500Y0068250D02*
X0220000Y0068250D01*
X0220000Y0069250D01*
X0221500Y0069250D01*
X0221500Y0068250D01*
X0221500Y0068631D02*
X0220000Y0068631D01*
X0220000Y0069129D02*
X0221500Y0069129D01*
X0171500Y0064250D02*
X0171500Y0063250D01*
X0166000Y0063250D01*
X0166000Y0064250D01*
X0171500Y0064250D01*
X0171500Y0064144D02*
X0166000Y0064144D01*
X0166000Y0063646D02*
X0171500Y0063646D01*
X0059500Y0068250D02*
X0058000Y0068250D01*
X0058000Y0069250D01*
X0059500Y0069250D01*
X0059500Y0068250D01*
X0059500Y0068631D02*
X0058000Y0068631D01*
X0058000Y0069129D02*
X0059500Y0069129D01*
X0166000Y0225250D02*
X0166000Y0226250D01*
X0171500Y0226250D01*
X0171500Y0225250D01*
X0166000Y0225250D01*
X0166000Y0225662D02*
X0171500Y0225662D01*
X0171500Y0226160D02*
X0166000Y0226160D01*
X0220000Y0230250D02*
X0220000Y0231250D01*
X0221500Y0231250D01*
X0221500Y0230250D01*
X0220000Y0230250D01*
X0220000Y0230647D02*
X0221500Y0230647D01*
X0221500Y0231146D02*
X0220000Y0231146D01*
X0328000Y0226250D02*
X0333500Y0226250D01*
X0333500Y0225250D01*
X0328000Y0225250D01*
X0328000Y0226250D01*
X0328000Y0226160D02*
X0333500Y0226160D01*
X0333500Y0225662D02*
X0328000Y0225662D01*
X0059500Y0230250D02*
X0058000Y0230250D01*
X0058000Y0231250D01*
X0059500Y0231250D01*
X0059500Y0230250D01*
X0059500Y0230647D02*
X0058000Y0230647D01*
X0058000Y0231146D02*
X0059500Y0231146D01*
D20*
X0042623Y0235576D02*
X0039877Y0235576D01*
X0042623Y0235576D02*
X0042623Y0232830D01*
X0039877Y0232830D01*
X0039877Y0235576D01*
X0039877Y0234720D02*
X0042623Y0234720D01*
X0042623Y0228670D02*
X0039877Y0228670D01*
X0042623Y0228670D02*
X0042623Y0225924D01*
X0039877Y0225924D01*
X0039877Y0228670D01*
X0039877Y0227814D02*
X0042623Y0227814D01*
X0201877Y0228670D02*
X0204623Y0228670D01*
X0204623Y0225924D01*
X0201877Y0225924D01*
X0201877Y0228670D01*
X0201877Y0227814D02*
X0204623Y0227814D01*
X0204623Y0235576D02*
X0201877Y0235576D01*
X0204623Y0235576D02*
X0204623Y0232830D01*
X0201877Y0232830D01*
X0201877Y0235576D01*
X0201877Y0234720D02*
X0204623Y0234720D01*
X0204623Y0073576D02*
X0201877Y0073576D01*
X0204623Y0073576D02*
X0204623Y0070830D01*
X0201877Y0070830D01*
X0201877Y0073576D01*
X0201877Y0072720D02*
X0204623Y0072720D01*
X0204623Y0066670D02*
X0201877Y0066670D01*
X0204623Y0066670D02*
X0204623Y0063924D01*
X0201877Y0063924D01*
X0201877Y0066670D01*
X0201877Y0065814D02*
X0204623Y0065814D01*
X0042623Y0066670D02*
X0039877Y0066670D01*
X0042623Y0066670D02*
X0042623Y0063924D01*
X0039877Y0063924D01*
X0039877Y0066670D01*
X0039877Y0065814D02*
X0042623Y0065814D01*
X0042623Y0073576D02*
X0039877Y0073576D01*
X0042623Y0073576D02*
X0042623Y0070830D01*
X0039877Y0070830D01*
X0039877Y0073576D01*
X0039877Y0072720D02*
X0042623Y0072720D01*
D21*
X0068750Y0174222D03*
X0068750Y0183278D03*
X0230750Y0183278D03*
X0230750Y0174222D03*
X0230750Y0336222D03*
X0230750Y0345278D03*
X0068750Y0345278D03*
X0068750Y0336222D03*
D22*
X0080699Y0285711D03*
X0080699Y0278230D03*
X0080699Y0270750D03*
X0080699Y0263270D03*
X0080699Y0255789D03*
X0136801Y0255789D03*
X0136801Y0263270D03*
X0136801Y0270750D03*
X0136801Y0278230D03*
X0136801Y0285711D03*
X0242699Y0285711D03*
X0242699Y0278230D03*
X0242699Y0270750D03*
X0242699Y0263270D03*
X0242699Y0255789D03*
X0298801Y0255789D03*
X0298801Y0263270D03*
X0298801Y0270750D03*
X0298801Y0278230D03*
X0298801Y0285711D03*
X0298801Y0123711D03*
X0298801Y0116230D03*
X0298801Y0108750D03*
X0298801Y0101270D03*
X0298801Y0093789D03*
X0242699Y0093789D03*
X0242699Y0101270D03*
X0242699Y0108750D03*
X0242699Y0116230D03*
X0242699Y0123711D03*
X0136801Y0123711D03*
X0136801Y0116230D03*
X0136801Y0108750D03*
X0136801Y0101270D03*
X0136801Y0093789D03*
X0080699Y0093789D03*
X0080699Y0101270D03*
X0080699Y0108750D03*
X0080699Y0116230D03*
X0080699Y0123711D03*
D23*
X0093789Y0136801D03*
X0101270Y0136801D03*
X0108750Y0136801D03*
X0116230Y0136801D03*
X0123711Y0136801D03*
X0123711Y0080699D03*
X0116230Y0080699D03*
X0108750Y0080699D03*
X0101270Y0080699D03*
X0093789Y0080699D03*
X0255789Y0080699D03*
X0263270Y0080699D03*
X0270750Y0080699D03*
X0278230Y0080699D03*
X0285711Y0080699D03*
X0285711Y0136801D03*
X0278230Y0136801D03*
X0270750Y0136801D03*
X0263270Y0136801D03*
X0255789Y0136801D03*
X0255789Y0242699D03*
X0263270Y0242699D03*
X0270750Y0242699D03*
X0278230Y0242699D03*
X0285711Y0242699D03*
X0285711Y0298801D03*
X0278230Y0298801D03*
X0270750Y0298801D03*
X0263270Y0298801D03*
X0255789Y0298801D03*
X0123711Y0298801D03*
X0116230Y0298801D03*
X0108750Y0298801D03*
X0101270Y0298801D03*
X0093789Y0298801D03*
X0093789Y0242699D03*
X0101270Y0242699D03*
X0108750Y0242699D03*
X0116230Y0242699D03*
X0123711Y0242699D03*
D24*
X0055750Y0359000D03*
X0323750Y0359000D03*
D25*
X0052185Y0020500D02*
X0052187Y0020619D01*
X0052193Y0020738D01*
X0052203Y0020857D01*
X0052217Y0020975D01*
X0052235Y0021093D01*
X0052256Y0021210D01*
X0052282Y0021326D01*
X0052312Y0021442D01*
X0052345Y0021556D01*
X0052382Y0021669D01*
X0052423Y0021781D01*
X0052468Y0021892D01*
X0052516Y0022001D01*
X0052568Y0022108D01*
X0052624Y0022213D01*
X0052683Y0022317D01*
X0052745Y0022418D01*
X0052811Y0022518D01*
X0052880Y0022615D01*
X0052952Y0022709D01*
X0053028Y0022802D01*
X0053106Y0022891D01*
X0053187Y0022978D01*
X0053272Y0023063D01*
X0053359Y0023144D01*
X0053448Y0023222D01*
X0053541Y0023298D01*
X0053635Y0023370D01*
X0053732Y0023439D01*
X0053832Y0023505D01*
X0053933Y0023567D01*
X0054037Y0023626D01*
X0054142Y0023682D01*
X0054249Y0023734D01*
X0054358Y0023782D01*
X0054469Y0023827D01*
X0054581Y0023868D01*
X0054694Y0023905D01*
X0054808Y0023938D01*
X0054924Y0023968D01*
X0055040Y0023994D01*
X0055157Y0024015D01*
X0055275Y0024033D01*
X0055393Y0024047D01*
X0055512Y0024057D01*
X0055631Y0024063D01*
X0055750Y0024065D01*
X0055869Y0024063D01*
X0055988Y0024057D01*
X0056107Y0024047D01*
X0056225Y0024033D01*
X0056343Y0024015D01*
X0056460Y0023994D01*
X0056576Y0023968D01*
X0056692Y0023938D01*
X0056806Y0023905D01*
X0056919Y0023868D01*
X0057031Y0023827D01*
X0057142Y0023782D01*
X0057251Y0023734D01*
X0057358Y0023682D01*
X0057463Y0023626D01*
X0057567Y0023567D01*
X0057668Y0023505D01*
X0057768Y0023439D01*
X0057865Y0023370D01*
X0057959Y0023298D01*
X0058052Y0023222D01*
X0058141Y0023144D01*
X0058228Y0023063D01*
X0058313Y0022978D01*
X0058394Y0022891D01*
X0058472Y0022802D01*
X0058548Y0022709D01*
X0058620Y0022615D01*
X0058689Y0022518D01*
X0058755Y0022418D01*
X0058817Y0022317D01*
X0058876Y0022213D01*
X0058932Y0022108D01*
X0058984Y0022001D01*
X0059032Y0021892D01*
X0059077Y0021781D01*
X0059118Y0021669D01*
X0059155Y0021556D01*
X0059188Y0021442D01*
X0059218Y0021326D01*
X0059244Y0021210D01*
X0059265Y0021093D01*
X0059283Y0020975D01*
X0059297Y0020857D01*
X0059307Y0020738D01*
X0059313Y0020619D01*
X0059315Y0020500D01*
X0059313Y0020381D01*
X0059307Y0020262D01*
X0059297Y0020143D01*
X0059283Y0020025D01*
X0059265Y0019907D01*
X0059244Y0019790D01*
X0059218Y0019674D01*
X0059188Y0019558D01*
X0059155Y0019444D01*
X0059118Y0019331D01*
X0059077Y0019219D01*
X0059032Y0019108D01*
X0058984Y0018999D01*
X0058932Y0018892D01*
X0058876Y0018787D01*
X0058817Y0018683D01*
X0058755Y0018582D01*
X0058689Y0018482D01*
X0058620Y0018385D01*
X0058548Y0018291D01*
X0058472Y0018198D01*
X0058394Y0018109D01*
X0058313Y0018022D01*
X0058228Y0017937D01*
X0058141Y0017856D01*
X0058052Y0017778D01*
X0057959Y0017702D01*
X0057865Y0017630D01*
X0057768Y0017561D01*
X0057668Y0017495D01*
X0057567Y0017433D01*
X0057463Y0017374D01*
X0057358Y0017318D01*
X0057251Y0017266D01*
X0057142Y0017218D01*
X0057031Y0017173D01*
X0056919Y0017132D01*
X0056806Y0017095D01*
X0056692Y0017062D01*
X0056576Y0017032D01*
X0056460Y0017006D01*
X0056343Y0016985D01*
X0056225Y0016967D01*
X0056107Y0016953D01*
X0055988Y0016943D01*
X0055869Y0016937D01*
X0055750Y0016935D01*
X0055631Y0016937D01*
X0055512Y0016943D01*
X0055393Y0016953D01*
X0055275Y0016967D01*
X0055157Y0016985D01*
X0055040Y0017006D01*
X0054924Y0017032D01*
X0054808Y0017062D01*
X0054694Y0017095D01*
X0054581Y0017132D01*
X0054469Y0017173D01*
X0054358Y0017218D01*
X0054249Y0017266D01*
X0054142Y0017318D01*
X0054037Y0017374D01*
X0053933Y0017433D01*
X0053832Y0017495D01*
X0053732Y0017561D01*
X0053635Y0017630D01*
X0053541Y0017702D01*
X0053448Y0017778D01*
X0053359Y0017856D01*
X0053272Y0017937D01*
X0053187Y0018022D01*
X0053106Y0018109D01*
X0053028Y0018198D01*
X0052952Y0018291D01*
X0052880Y0018385D01*
X0052811Y0018482D01*
X0052745Y0018582D01*
X0052683Y0018683D01*
X0052624Y0018787D01*
X0052568Y0018892D01*
X0052516Y0018999D01*
X0052468Y0019108D01*
X0052423Y0019219D01*
X0052382Y0019331D01*
X0052345Y0019444D01*
X0052312Y0019558D01*
X0052282Y0019674D01*
X0052256Y0019790D01*
X0052235Y0019907D01*
X0052217Y0020025D01*
X0052203Y0020143D01*
X0052193Y0020262D01*
X0052187Y0020381D01*
X0052185Y0020500D01*
D26*
X0055750Y0020500D03*
M02*
