G75*
%MOIN*%
%OFA0B0*%
%FSLAX25Y25*%
%IPPOS*%
%LPD*%
%AMOC8*
5,1,8,0,0,1.08239X$1,22.5*
%
%ADD10R,0.07874X0.04724*%
%ADD11R,0.05315X0.02362*%
%ADD12R,0.04331X0.03937*%
%ADD13R,0.03937X0.04331*%
%ADD14R,0.08858X0.03346*%
%ADD15C,0.01181*%
%ADD16R,0.03268X0.02480*%
%ADD17R,0.10827X0.06299*%
%ADD18R,0.06299X0.10827*%
D10*
X0034281Y0097726D03*
X0034281Y0119774D03*
X0034281Y0259726D03*
X0034281Y0281774D03*
X0183219Y0281774D03*
X0196281Y0281774D03*
X0196281Y0259726D03*
X0183219Y0259726D03*
X0183219Y0119774D03*
X0196281Y0119774D03*
X0196281Y0097726D03*
X0183219Y0097726D03*
X0345219Y0097726D03*
X0345219Y0119774D03*
X0345219Y0259726D03*
X0345219Y0281774D03*
D11*
X0330750Y0276656D03*
X0330750Y0272719D03*
X0330750Y0268781D03*
X0330750Y0264844D03*
X0210750Y0264844D03*
X0210750Y0268781D03*
X0210750Y0272719D03*
X0210750Y0276656D03*
X0168750Y0276656D03*
X0168750Y0272719D03*
X0168750Y0268781D03*
X0168750Y0264844D03*
X0048750Y0264844D03*
X0048750Y0268781D03*
X0048750Y0272719D03*
X0048750Y0276656D03*
X0048750Y0114656D03*
X0048750Y0110719D03*
X0048750Y0106781D03*
X0048750Y0102844D03*
X0168750Y0102844D03*
X0168750Y0106781D03*
X0168750Y0110719D03*
X0168750Y0114656D03*
X0210750Y0114656D03*
X0210750Y0110719D03*
X0210750Y0106781D03*
X0210750Y0102844D03*
X0330750Y0102844D03*
X0330750Y0106781D03*
X0330750Y0110719D03*
X0330750Y0114656D03*
D12*
X0309096Y0058750D03*
X0302404Y0058750D03*
X0294096Y0058750D03*
X0287404Y0058750D03*
X0204096Y0088750D03*
X0197404Y0088750D03*
X0147096Y0058750D03*
X0140404Y0058750D03*
X0132096Y0058750D03*
X0125404Y0058750D03*
X0042096Y0088750D03*
X0035404Y0088750D03*
X0125404Y0220750D03*
X0132096Y0220750D03*
X0140404Y0220750D03*
X0147096Y0220750D03*
X0197404Y0250750D03*
X0204096Y0250750D03*
X0287404Y0220750D03*
X0294096Y0220750D03*
X0302404Y0220750D03*
X0309096Y0220750D03*
X0042096Y0250750D03*
X0035404Y0250750D03*
D13*
X0048750Y0234096D03*
X0048750Y0227404D03*
X0053750Y0182096D03*
X0053750Y0175404D03*
X0061250Y0175404D03*
X0061250Y0182096D03*
X0133750Y0172096D03*
X0138750Y0172096D03*
X0138750Y0165404D03*
X0133750Y0165404D03*
X0158750Y0222404D03*
X0158750Y0229096D03*
X0178750Y0229096D03*
X0178750Y0222404D03*
X0210750Y0227404D03*
X0210750Y0234096D03*
X0215750Y0182096D03*
X0215750Y0175404D03*
X0223250Y0175404D03*
X0223250Y0182096D03*
X0295750Y0172096D03*
X0300750Y0172096D03*
X0300750Y0165404D03*
X0295750Y0165404D03*
X0320750Y0222404D03*
X0320750Y0229096D03*
X0340750Y0229096D03*
X0340750Y0222404D03*
X0300750Y0327404D03*
X0295750Y0327404D03*
X0295750Y0334096D03*
X0300750Y0334096D03*
X0223250Y0337404D03*
X0223250Y0344096D03*
X0215750Y0344096D03*
X0215750Y0337404D03*
X0138750Y0334096D03*
X0133750Y0334096D03*
X0133750Y0327404D03*
X0138750Y0327404D03*
X0061250Y0337404D03*
X0061250Y0344096D03*
X0053750Y0344096D03*
X0053750Y0337404D03*
X0048750Y0072096D03*
X0048750Y0065404D03*
X0158750Y0067096D03*
X0158750Y0060404D03*
X0178750Y0060404D03*
X0178750Y0067096D03*
X0210750Y0065404D03*
X0210750Y0072096D03*
X0320750Y0067096D03*
X0320750Y0060404D03*
X0340750Y0060404D03*
X0340750Y0067096D03*
D14*
G36*
X0219054Y0145887D02*
X0224980Y0139306D01*
X0222494Y0137067D01*
X0216568Y0143648D01*
X0219054Y0145887D01*
G37*
G36*
X0214665Y0141936D02*
X0220591Y0135355D01*
X0218105Y0133116D01*
X0212179Y0139697D01*
X0214665Y0141936D01*
G37*
G36*
X0057054Y0145887D02*
X0062980Y0139306D01*
X0060494Y0137067D01*
X0054568Y0143648D01*
X0057054Y0145887D01*
G37*
G36*
X0052665Y0141936D02*
X0058591Y0135355D01*
X0056105Y0133116D01*
X0050179Y0139697D01*
X0052665Y0141936D01*
G37*
G36*
X0052665Y0303936D02*
X0058591Y0297355D01*
X0056105Y0295116D01*
X0050179Y0301697D01*
X0052665Y0303936D01*
G37*
G36*
X0057054Y0307887D02*
X0062980Y0301306D01*
X0060494Y0299067D01*
X0054568Y0305648D01*
X0057054Y0307887D01*
G37*
G36*
X0214665Y0303936D02*
X0220591Y0297355D01*
X0218105Y0295116D01*
X0212179Y0301697D01*
X0214665Y0303936D01*
G37*
G36*
X0219054Y0307887D02*
X0224980Y0301306D01*
X0222494Y0299067D01*
X0216568Y0305648D01*
X0219054Y0307887D01*
G37*
D15*
X0042628Y0066675D02*
X0039872Y0066675D01*
X0042628Y0066675D02*
X0042628Y0063919D01*
X0039872Y0063919D01*
X0039872Y0066675D01*
X0039872Y0065041D02*
X0042628Y0065041D01*
X0042628Y0066163D02*
X0039872Y0066163D01*
X0039872Y0073581D02*
X0042628Y0073581D01*
X0042628Y0070825D01*
X0039872Y0070825D01*
X0039872Y0073581D01*
X0039872Y0071947D02*
X0042628Y0071947D01*
X0042628Y0073069D02*
X0039872Y0073069D01*
X0201872Y0073581D02*
X0204628Y0073581D01*
X0204628Y0070825D01*
X0201872Y0070825D01*
X0201872Y0073581D01*
X0201872Y0071947D02*
X0204628Y0071947D01*
X0204628Y0073069D02*
X0201872Y0073069D01*
X0201872Y0066675D02*
X0204628Y0066675D01*
X0204628Y0063919D01*
X0201872Y0063919D01*
X0201872Y0066675D01*
X0201872Y0065041D02*
X0204628Y0065041D01*
X0204628Y0066163D02*
X0201872Y0066163D01*
X0201872Y0228675D02*
X0204628Y0228675D01*
X0204628Y0225919D01*
X0201872Y0225919D01*
X0201872Y0228675D01*
X0201872Y0227041D02*
X0204628Y0227041D01*
X0204628Y0228163D02*
X0201872Y0228163D01*
X0201872Y0235581D02*
X0204628Y0235581D01*
X0204628Y0232825D01*
X0201872Y0232825D01*
X0201872Y0235581D01*
X0201872Y0233947D02*
X0204628Y0233947D01*
X0204628Y0235069D02*
X0201872Y0235069D01*
X0042628Y0235581D02*
X0039872Y0235581D01*
X0042628Y0235581D02*
X0042628Y0232825D01*
X0039872Y0232825D01*
X0039872Y0235581D01*
X0039872Y0233947D02*
X0042628Y0233947D01*
X0042628Y0235069D02*
X0039872Y0235069D01*
X0039872Y0228675D02*
X0042628Y0228675D01*
X0042628Y0225919D01*
X0039872Y0225919D01*
X0039872Y0228675D01*
X0039872Y0227041D02*
X0042628Y0227041D01*
X0042628Y0228163D02*
X0039872Y0228163D01*
D16*
X0068750Y0183278D03*
X0068750Y0174222D03*
X0230750Y0174222D03*
X0230750Y0183278D03*
X0230750Y0336222D03*
X0230750Y0345278D03*
X0068750Y0345278D03*
X0068750Y0336222D03*
D17*
X0080699Y0285711D03*
X0080699Y0278230D03*
X0080699Y0270750D03*
X0080699Y0263270D03*
X0080699Y0255789D03*
X0136801Y0255789D03*
X0136801Y0263270D03*
X0136801Y0270750D03*
X0136801Y0278230D03*
X0136801Y0285711D03*
X0242699Y0285711D03*
X0242699Y0278230D03*
X0242699Y0270750D03*
X0242699Y0263270D03*
X0242699Y0255789D03*
X0298801Y0255789D03*
X0298801Y0263270D03*
X0298801Y0270750D03*
X0298801Y0278230D03*
X0298801Y0285711D03*
X0298801Y0123711D03*
X0298801Y0116230D03*
X0298801Y0108750D03*
X0298801Y0101270D03*
X0298801Y0093789D03*
X0242699Y0093789D03*
X0242699Y0101270D03*
X0242699Y0108750D03*
X0242699Y0116230D03*
X0242699Y0123711D03*
X0136801Y0123711D03*
X0136801Y0116230D03*
X0136801Y0108750D03*
X0136801Y0101270D03*
X0136801Y0093789D03*
X0080699Y0093789D03*
X0080699Y0101270D03*
X0080699Y0108750D03*
X0080699Y0116230D03*
X0080699Y0123711D03*
D18*
X0093789Y0136801D03*
X0101270Y0136801D03*
X0108750Y0136801D03*
X0116230Y0136801D03*
X0123711Y0136801D03*
X0123711Y0080699D03*
X0116230Y0080699D03*
X0108750Y0080699D03*
X0101270Y0080699D03*
X0093789Y0080699D03*
X0255789Y0080699D03*
X0263270Y0080699D03*
X0270750Y0080699D03*
X0278230Y0080699D03*
X0285711Y0080699D03*
X0285711Y0136801D03*
X0278230Y0136801D03*
X0270750Y0136801D03*
X0263270Y0136801D03*
X0255789Y0136801D03*
X0255789Y0242699D03*
X0263270Y0242699D03*
X0270750Y0242699D03*
X0278230Y0242699D03*
X0285711Y0242699D03*
X0285711Y0298801D03*
X0278230Y0298801D03*
X0270750Y0298801D03*
X0263270Y0298801D03*
X0255789Y0298801D03*
X0123711Y0298801D03*
X0116230Y0298801D03*
X0108750Y0298801D03*
X0101270Y0298801D03*
X0093789Y0298801D03*
X0093789Y0242699D03*
X0101270Y0242699D03*
X0108750Y0242699D03*
X0116230Y0242699D03*
X0123711Y0242699D03*
M02*
